<?xml version="1.0" encoding="iso-8859-1"?>
<!-- Generator: Adobe Illustrator 19.0.0, SVG Export Plug-In . SVG Version: 6.00 Build 0)  -->
<svg version="1.1" id="Capa_1" xmlns="http://www.w3.org/2000/svg" xmlns:xlink="http://www.w3.org/1999/xlink" x="0px" y="0px"
	 viewBox="0 0 85 85" style="enable-background:new 0 0 85 85;" xml:space="preserve">
<g id="facebook_1_">
	<g>
		<path style="fill-rule:evenodd;clip-rule:evenodd;" d="M54.886,15.924c3.043,0.09,5.907-0.001,7.945-0.918
			c1.156-2.509,1.646-5.688,1.835-9.167c-0.567-0.045-0.188-1.034-0.613-1.224c-0.09-0.62-0.827-0.598-0.917-1.221
			c-0.82-0.505-1.353-1.295-2.14-1.834c-2.153-0.495-4.268-1.027-6.414-1.528c-2.512,0.136-5.612-0.314-7.642,0.306
			c-7.761-0.124-11.844,3.433-15.583,7.334c-0.069,0.238-0.01,0.603-0.31,0.61c-1.702,4.868-0.37,11.103-0.607,17.114
			c0.292,1.338,0.318,2.94,0.607,4.277c-2.959,0.908-6.555,1.185-10.082,1.529c-0.939,0.994-0.527,3.341-0.61,5.195
			c0.252,1.787,0.824,3.25,1.224,4.888c0.624,0.592,1.766,1.217,2.444,1.529c0.193,0.089,0.212,0.253,0.305,0.304
			c1.497,0.821,4.3,0.025,6.719,0.307c-0.405,6.065,0.757,12.004,0,17.417c0.019,1.003,0.872,1.171,0.614,2.445
			c-0.003,2.954-0.198,6.105,0.614,8.251c-0.849,1.394-1.471,3.014-1.228,5.502c0.36,0.049,0.336,0.482,0.31,0.915
			c-0.222,1.443,1.906,0.538,1.527,2.141c0.481,1.398-1.268,0.564-1.223,1.527v2.751c1.57,0.875,4.332,0.558,6.722,0.61
			c2.689-1.285,6.479-1.467,8.253-3.668c1.359,0.722,2.71-0.041,3.667-0.61c-0.05-0.967,0.813-1.021,0.609-2.14
			c-0.011-1.007-0.513-1.521-0.305-2.75v-8.861c-0.609-7.029-0.139-15.141-0.913-22.004c2.63-0.321,5.678-0.229,7.638-1.222
			c1.059-1.382,1.118-3.773,1.527-5.807c0.526-0.693,0.655-1.789,0.613-3.055c0.565-0.655,0.203-2.238,0.305-3.36
			c-0.415-1.826-0.497-3.987-2.445-4.278c-2.618-0.722-6.055,1.825-8.864,0.916c0.147-3.48-0.869-7.182,0-10.389
			C50.679,17.215,52.754,16.543,54.886,15.924z M43.578,30.591c0.347,0.778,0.752,1.491,1.225,2.14
			c0.235,0.069,0.601,0.008,0.61,0.306c3.533,0.173,6.515-0.21,9.169-0.916c0.003,3.06-0.801,5.313-1.531,7.64
			c-1.96,0.139-4.345,0.92-5.803,0.611c-0.818,0.504-1.1,1.55-1.835,2.138c-0.144,1.353,0.418,1.518,0,2.443
			c-0.598,0.42-0.165,1.875-0.61,2.445v4.587c0.251,0.861-0.431,0.789-0.304,1.524v10.696c-0.253,0.863,0.43,0.792,0.304,1.529
			v9.168c0.188,0.828-0.389,2.423,0.305,2.748c-0.209,1.116-1.22-0.064-2.444,0.306c-1.566,0.373-2.742,1.132-4.585,1.224
			c0.347-1.08,0.948-1.905,0.919-3.362c0.145-1.166-1.082-0.956-1.527-1.528c0.572-1.973,1.664-3.425,2.138-5.499
			c0.585-1.576,2.117-3.978,0.915-5.502c-1.547-0.322-1.543,0.903-2.445,1.224c-0.068,0.237-0.006,0.602-0.305,0.61
			c-0.069,0.238-0.008,0.602-0.303,0.612c0.03,0.368-0.448,0.186,0,0c0.065-0.239,0.006-0.604,0.303-0.612
			c0.069-0.237,0.006-0.603,0.305-0.61v-0.917c1.09-1.763,1.985-3.722,2.445-6.111c0.568-0.859,0.84-2.013,1.223-3.058
			c0.463-0.802,1.007-2.666,0.308-3.666c-1.53,0.102-2.355,0.907-2.753,2.139c-0.95-0.582,0.479-1.328,0.308-2.139
			c0.41-0.709,0.502-1.734,0.915-2.443c0.599-1.266,1.675-3.996,0-4.891c-1.294-0.072-1.812,0.635-2.14,1.526
			c-0.634,0.588-1.273,1.173-1.528,2.141c-1.107-0.216-0.421-2.229-0.611-3.362c-0.198-1.593,0.364-2.76,0-3.666
			c-1.657-2.451-6.002-0.323-9.472-0.917c-0.323-0.941-0.658-3.017-0.307-3.667c3.096-0.269,7.343,0.617,9.473-0.611
			c0.071-0.237,0.009-0.604,0.306-0.61c0.279-2.217-0.804-3.066-1.525-4.279c0.688-2.471,0.12-6.194,0.306-9.167
			c0.693-0.43,0.973-1.269,1.527-1.833c0.331-2.927,1.993-4.525,2.136-7.641c-0.807,0.004-1.798-0.169-1.832,0.611
			c-0.894-0.352-1.131,1.466-1.525,0.611c-0.334-1.658,0.73-1.921,0.914-3.058c1.776-1.281,3.592-2.516,5.502-3.665
			c5.159-0.749,13.769-1.377,18.031,0.608c0.151,1.888-0.849,2.618-0.612,4.587h-4.582c-3.236,0.736-5.887,2.061-8.865,3.057
			c-0.708,0.204-0.819,1.015-1.526,1.222c-0.108,1.217-0.667,1.982-0.918,3.055C43.039,22.778,43.667,26.328,43.578,30.591z"/>
	</g>
</g>
<g>
</g>
<g>
</g>
<g>
</g>
<g>
</g>
<g>
</g>
<g>
</g>
<g>
</g>
<g>
</g>
<g>
</g>
<g>
</g>
<g>
</g>
<g>
</g>
<g>
</g>
<g>
</g>
<g>
</g>
</svg>
