<?xml version="1.0" encoding="utf-8"?>
<!-- Generator: Adobe Illustrator 19.2.1, SVG Export Plug-In . SVG Version: 6.00 Build 0)  -->
<svg version="1.1" id="Capa_1" xmlns="http://www.w3.org/2000/svg" xmlns:xlink="http://www.w3.org/1999/xlink" x="0px" y="0px"
	 viewBox="0 0 85 85" style="enable-background:new 0 0 85 85;" xml:space="preserve">
<style type="text/css">
	.st0{fill:#FFFFFF;}
</style>
<g id="facebook_1_">
	<g>
		<path class="st0" d="M54.9,15.9c3,0.1,5.9,0,7.9-0.9c1.2-2.5,1.6-5.7,1.8-9.2c-0.6,0-0.2-1-0.6-1.2C64,4,63.2,4,63.1,3.4
			c-0.8-0.5-1.4-1.3-2.1-1.8c-2.2-0.5-4.3-1-6.4-1.5c-2.5,0.1-5.6-0.3-7.6,0.3c-7.8-0.1-11.8,3.4-15.6,7.3c-0.1,0.2,0,0.6-0.3,0.6
			c-1.7,4.9-0.4,11.1-0.6,17.1c0.3,1.3,0.3,2.9,0.6,4.3c-3,0.9-6.6,1.2-10.1,1.5c-0.9,1-0.5,3.3-0.6,5.2c0.3,1.8,0.8,3.3,1.2,4.9
			c0.6,0.6,1.8,1.2,2.4,1.5c0.2,0.1,0.2,0.3,0.3,0.3c1.5,0.8,4.3,0,6.7,0.3c-0.4,6.1,0.8,12,0,17.4c0,1,0.9,1.2,0.6,2.4
			c0,3-0.2,6.1,0.6,8.3c-0.8,1.4-1.5,3-1.2,5.5c0.4,0,0.3,0.5,0.3,0.9c-0.2,1.4,1.9,0.5,1.5,2.1c0.5,1.4-1.3,0.6-1.2,1.5v2.8
			c1.6,0.9,4.3,0.6,6.7,0.6c2.7-1.3,6.5-1.5,8.3-3.7c1.4,0.7,2.7,0,3.7-0.6c0-1,0.8-1,0.6-2.1c0-1-0.5-1.5-0.3-2.8V67
			c-0.6-7-0.1-15.1-0.9-22c2.6-0.3,5.7-0.2,7.6-1.2c1.1-1.4,1.1-3.8,1.5-5.8c0.5-0.7,0.7-1.8,0.6-3.1c0.6-0.7,0.2-2.2,0.3-3.4
			c-0.4-1.8-0.5-4-2.4-4.3c-2.6-0.7-6.1,1.8-8.9,0.9c0.1-3.5-0.9-7.2,0-10.4C50.7,17.2,52.8,16.5,54.9,15.9z M43.6,30.6
			c0.3,0.8,0.8,1.5,1.2,2.1c0.2,0.1,0.6,0,0.6,0.3c3.5,0.2,6.5-0.2,9.2-0.9c0,3.1-0.8,5.3-1.5,7.6c-2,0.1-4.3,0.9-5.8,0.6
			c-0.8,0.5-1.1,1.5-1.8,2.1c-0.1,1.4,0.4,1.5,0,2.4c-0.6,0.4-0.2,1.9-0.6,2.4V52c0.3,0.9-0.4,0.8-0.3,1.5v10.7
			c-0.3,0.9,0.4,0.8,0.3,1.5v9.2c0.2,0.8-0.4,2.4,0.3,2.7c-0.2,1.1-1.2-0.1-2.4,0.3c-1.6,0.4-2.7,1.1-4.6,1.2
			c0.3-1.1,0.9-1.9,0.9-3.4c0.1-1.2-1.1-1-1.5-1.5c0.6-2,1.7-3.4,2.1-5.5c0.6-1.6,2.1-4,0.9-5.5C39,63,39,64.2,38.1,64.5
			c-0.1,0.2,0,0.6-0.3,0.6c-0.1,0.2,0,0.6-0.3,0.6c0,0.4-0.4,0.2,0,0c0.1-0.2,0-0.6,0.3-0.6c0.1-0.2,0-0.6,0.3-0.6v-0.9
			c1.1-1.8,2-3.7,2.4-6.1c0.6-0.9,0.8-2,1.2-3.1c0.5-0.8,1-2.7,0.3-3.7c-1.5,0.1-2.4,0.9-2.8,2.1c-1-0.6,0.5-1.3,0.3-2.1
			c0.4-0.7,0.5-1.7,0.9-2.4c0.6-1.3,1.7-4,0-4.9c-1.3-0.1-1.8,0.6-2.1,1.5c-0.6,0.6-1.3,1.2-1.5,2.1c-1.1-0.2-0.4-2.2-0.6-3.4
			c-0.2-1.6,0.4-2.8,0-3.7c-1.7-2.5-6-0.3-9.5-0.9c-0.3-0.9-0.7-3-0.3-3.7c3.1-0.3,7.3,0.6,9.5-0.6c0.1-0.2,0-0.6,0.3-0.6
			c0.3-2.2-0.8-3.1-1.5-4.3c0.7-2.5,0.1-6.2,0.3-9.2c0.7-0.4,1-1.3,1.5-1.8c0.3-2.9,2-4.5,2.1-7.6c-0.8,0-1.8-0.2-1.8,0.6
			c-0.9-0.4-1.1,1.5-1.5,0.6c-0.3-1.7,0.7-1.9,0.9-3.1C38,8.2,39.8,7,41.7,5.8c5.2-0.7,13.8-1.4,18,0.6c0.2,1.9-0.8,2.6-0.6,4.6
			h-4.6c-3.2,0.7-5.9,2.1-8.9,3.1c-0.7,0.2-0.8,1-1.5,1.2c-0.1,1.2-0.7,2-0.9,3.1C43,22.8,43.7,26.3,43.6,30.6z"/>
	</g>
</g>
</svg>
