<?xml version="1.0" encoding="utf-8"?>
<!-- Generator: Adobe Illustrator 19.2.1, SVG Export Plug-In . SVG Version: 6.00 Build 0)  -->
<svg version="1.1" id="Capa_1" xmlns="http://www.w3.org/2000/svg" xmlns:xlink="http://www.w3.org/1999/xlink" x="0px" y="0px"
	 viewBox="0 0 105.8 105.8" style="enable-background:new 0 0 105.8 105.8;" xml:space="preserve">
<style type="text/css">
	.st0{fill:#FFFFFF;}
</style>
<g id="git_1_">
	<g>
		<path class="st0" d="M64.3,61.8c3.2-0.1,5.1-1.5,7.7-2.3c2.1-1.3,5.6-1.3,7.7-2.6c2.8-0.6,4.5-2.3,6.6-3.7
			c1.9-1.5,3.7-3.1,5.7-4.6c1.4-2.4,3.2-4.4,3.7-7.7v-7.4c-0.5-3.3-1.5-6.1-2.3-9.1c-0.6-0.4-1-0.9-1.1-1.7c-1-0.7-1.8-1.6-2.6-2.6
			c-1.3-0.5-2.5-1.2-3.1-2.3c0.6-0.2,0.1-1.6,0.3-2.3c0.6-0.2,0.1-1.6,0.3-2.3c0.8,0-0.2-2,0.6-2c-0.2-1.2,0.4-1.5,0.3-2.6
			c0.5-2.6,2.3-6.3,0.6-8.5c-0.4-0.4-1.2-0.3-2-0.3c-0.3,0.1-0.6,0.3-0.9,0.6c-1.2,0.5-1.7,1.5-2.8,2c-0.8,0.9-2,1.2-2.6,2.3
			c-2,1.4-3.4,3.3-5.4,4.6c-1.3-0.1-1.8,0.7-2.8,0.9c-1.2,0-2.1,0.4-3.1,0.6c-2.2,0.3-4.3,0.6-6.6,0.9c-1,0.1-1.6-0.1-2.3-0.3
			c-0.9-0.1-0.6,0.9-1.7,0.6c-2.8-0.4-6.9,0.2-10.5,0c-1.1-0.3-2.4-0.4-3.7-0.6c-1.5-0.9-2.8-2-3.7-3.4c-2.4-0.8-4-2.2-6.5-2.8
			c-1.5-0.4-1.6-2.2-3.7-2c-2.4,0.1-2.7,2.5-3.4,4.3c0.1,4.4-0.5,7.8,0,12c-0.1,0.9-0.9,1.2-1.4,1.7c-0.5,0.5-0.8,1.3-1.4,1.7
			c-0.9,1.2-1.4,2.7-2.3,4c-0.1,1.8-0.7,3.1-0.9,4.8v7.1c0.6,1,0.3,2.1,0.6,3.1c0,0.1,0.5,0.7,0.6,0.9c0.2,0.4,0.2,0.9,0.3,1.1
			c0.3,0.8,0.5,1.4,0.6,2c0,0.3,0.3,0.2,0.3,0.3c0.5,1.6,0.8,3.2,1.4,4.6c0.3,0.5,0.8,1.1,1.1,1.7c0.5,0.8,0.6,1,1.1,1.4
			c0.1,0.1-0.1,0.5,0,0.6c1,1.2,2.4,1.8,3.1,3.1c2.4,1.1,4.5,2.6,8,2.6c0.2,0.6,1.6,0.1,2.3,0.3c0.4,0.4,1.5,0.3,2.3,0.3
			c1.4,0.4,3,0.6,4.8,0.6c-0.7,0.8-1.3,1.6-2,2.3c-0.5,1-1.8,1.3-2,2.6c-0.9,0.8-0.5,2.9-1.4,3.7c-3.2,0.1-6-0.1-8-1.1
			c-2.8-3-4-7.6-7.7-9.7c-2.8-0.5-5.8,0.2-8.8,0.3c-1.2,1-2.8,1.6-4,2.6c-1.4,0.7-3.1,1.3-3.1,3.4c2.9,2.2,5.3-1.8,8.6-2
			c1.9-0.1,3.1,0.5,5.1,0.3c1.2,1.5,2.1,3.4,2.9,5.4c1,1.2,2,2.3,2.9,3.7c0.7-0.1,0.9,0.4,1.1,0.9c2,1,4.3,1.8,7.1,2h4.3
			c1.5,1.6,1.8,4,1.4,6.5c-0.1,0.4-0.4,0.9-0.6,1.4c-0.3,0.9-0.4,1.6-0.6,2.3c-0.3,1-1.2,1.9-1.1,2.8c-1.8,1.4-3.3,3.1-6.6,3.1
			c-2,0-1.9-2.1-4.3-1.7c-0.3-1.1-0.4-2.3-2-2c-1.2,0.5-1.4,2.9-0.9,4.3c0.5,1.4,1.2,2.6,1.7,4c2.2,1.8,6.6,1.4,10.5,1.4
			c0.6-0.5,1.4-0.9,2.3-1.1c2-2.4,3.8-5.1,5.7-7.7c0.2-1.3,0.9-2.1,1.1-3.4c0.3-0.9,1.5-2.2,2.3-1.7c0.6,4.2,0.2,9.3,0.3,14
			c-0.6,1-0.9,2.4-1.4,3.4c-1.6-0.1-2.6,0.4-3.4,1.1c0.3,1.6,1.2,2.6,2.3,3.4c3,0.3,4.6-0.7,6.3-1.7c0.8-1.8,1.5-3.6,2-5.7
			c0.1-3.6-0.1-7.9,0-12.2c0.4-1.6,0.9-3.1,0.9-5.1c0.6-1.4,0-3.9,0.9-5.1c0.1,1.8,0.5,3.3,0.3,5.4c1,6.5,4.5,10.5,6.5,16
			c2,1.9,4,3.8,7.7,4c0.2-0.4,0.9-0.4,1.4-0.6c0.7-0.9,1.4-1.9,1.1-3.7c-0.2-0.1-0.3-0.2-0.3-0.6c-0.8-1.7-3.2-1.7-4.6-2.8
			c-0.8-2.5-2.3-4.3-3.4-6.6c-0.7-2.2-1.2-4.4-2.3-6.3c0.1-1.5-0.7-2.1-0.6-3.7c-0.6-0.1-0.1-1.3-0.6-1.4c-0.2-1,1.2-0.4,0.9-1.4
			c1.2,1.2,1.6,3.1,2.3,4.8c1.9,2.8,3.6,5.7,6.3,7.7c2.2,2.5,5.2,4.3,9.1,5.1h3.7c0-0.5,1-0.2,1.1-0.6c0.2-0.4,0.6-0.5,1.1-0.6
			c1-1.1,1.7-2.5,2.6-3.7c0.6-1.3,1.1-4.3-0.3-5.1c-3.6-0.1-3.9,3.1-6.8,3.7c-5.3-1.2-8.9-5.5-11.1-9.4c-0.2-0.3-0.1-0.5-0.3-0.9
			c-1.6-2.9-3.5-5.8-4.6-8.8c-0.8-0.7-1.4-1.7-2-2.6c-0.5-0.3-0.9-0.6-1.1-1.1C64.6,62.8,63.7,61.9,64.3,61.8z M81.1,18.8
			c0,0,0.3-0.5,0.3-0.6c0,0,0-0.3,0-0.3C82.4,17.8,81.4,19.2,81.1,18.8z M79.4,25.9c-0.6-0.1-0.6-0.8-1.1-0.9c0.4-1.5,1.3-2.5,1.7-4
			c0.5,0,0.6,0.3,1.1,0.3C81.5,23.9,79.8,24.3,79.4,25.9z M81.4,28.8c0-1.2,0.7-1.8,1.1-2.6c0.5,0.3,0.5,1,0.9,1.4
			c0.1,1-0.9,1-0.9,2C81.9,29.6,81.9,28.9,81.4,28.8z M89.9,39.9c0.6,0.1,0,1.2-0.3,1.4c0.1,0.9-0.4,1.1-0.6,1.7
			c-0.8,0.7-0.8,2.2-2.3,2.3c-1.3,0,0.3-0.7,0.3-1.1c0.3-0.5,0.7-0.8,0.9-1.4C88.8,42,89.3,40.9,89.9,39.9z M87.6,37.3
			c0-0.9,0.6-1.1,0.9-1.7C89.9,36,88.3,38.1,87.6,37.3z M87.9,25.9c0.7,1,2.1,3.3,0.9,4.6c-1.1-0.3-1.1-1.7-2-2.3
			C86.9,27.2,87.5,26.7,87.9,25.9z M87.1,39.3c-1,1-1.8,2.1-2.6,3.4c-0.9-0.8,0.2-1.8,0.6-2.3c0.6-0.6,0.9-1.3,1.4-2
			C86.8,38.6,87.1,38.8,87.1,39.3z M86.2,23.9c0,0.6-0.8,0.4-0.6,1.1c-1.1-0.2-1.3-1.2-1.4-2.3C85.4,22.7,85.7,23.4,86.2,23.9z
			 M85.1,30.8c0.9,0.7,2,2.3,0.9,3.4c-0.9-0.2-0.8-1.5-1.7-1.7C84.5,31.9,84.8,31.4,85.1,30.8z M83.4,37.3c-1-0.6,0-1.5-0.3-2.8
			c0.6,0.2,0.7,1,1.1,1.4C84.3,36.8,83.4,36.7,83.4,37.3z M83.9,6.3c0.8,0.9-0.6,2.1-0.3,3.4c-1.2,0.1-1.2-1-2-1.4
			C82.3,7.5,83.4,7.2,83.9,6.3z M79.7,9.4h0.9c0,1.9,2.9,2,2,4c-1.5-0.5-2.1-1.9-3.1-2.9C79.2,10,79.6,9.8,79.7,9.4z M77.9,13.1
			c0.5-0.1,0.5,0.3,0.9,0.3c0.1,1.3,1.6,1.2,1.7,2.6c-0.4,0.3-0.6,0.8-0.9,1.1c-1.4-0.2-1.4-1.8-2.6-2.3
			C77.2,14.1,77.9,14,77.9,13.1z M77.9,28.2c-1,0.2-1-1-0.6-1.4C78,27,78.5,27.6,77.9,28.2z M75.4,12.5c0.1-0.4,0.3,0,0.3,0.3
			C75.2,12.9,75.1,12.6,75.4,12.5z M75.7,17.4c0.5-0.1,0.5,0.3,0.9,0.3c0,1.2,1.4,1,1.4,2.3c-0.9,1.2-1.4,2.7-2.3,4
			c-1.3-0.1-2-0.9-2.9-1.4C73.8,20.9,74.7,19,75.7,17.4z M74.2,27.1h-3.7c0-0.9,0.7-1,0.9-1.7c0.7,0,1,0.5,1.4,0.9
			C73.5,26.3,74.3,26.3,74.2,27.1z M72,14.8c-0.1-0.5,0.3-0.5,0.3-0.9c1.1-0.2,1,0.7,1.7,0.9c-0.4,1.2-1.5,1.7-1.7,3.1
			c-1.1,0.5-0.9,2.4-2.3,2.6c-1.1-0.8-0.1-2.2,0.6-2.9C70.9,16.6,71.3,15.6,72,14.8z M69.7,14.3c-0.8,1.2-1.6,2.4-2.3,3.7
			C65.2,17.1,66.6,13.3,69.7,14.3z M67.7,22.5c0.6,0,0.4,0.8,1.1,0.6c-0.1,1.7-1.2,2.4-0.9,4.6c-0.3-0.2-0.6-0.3-1.1-0.3
			c0.6-1.1,0-1.6-0.6-2.3C66.6,24,67.2,23.4,67.7,22.5z M65.7,20.5c-0.3,1.5-1.5,2.1-1.7,3.7c-0.6-0.3-1.1-0.6-1.7-0.9
			c0.5-1.5,1.6-2.4,2-4C65.1,19.4,65.3,20,65.7,20.5z M64.6,14.5c0.1,0.1-0.2,0.4-0.3,0.3C64.1,14.7,64.5,14.5,64.6,14.5z
			 M59.7,19.1c0.6-0.5,0.8-1.5,1.4-2c-0.1-0.5,0.3-0.5,0.3-0.9c0.6,0.1,0.6,0.8,1.1,0.9c-0.2,1-1.1,1.4-1.4,2.3
			c-0.6,0.6-0.7,1.8-1.7,2C58.5,20.7,59.4,20,59.7,19.1z M62,26.8c-0.1,0.6-1.4,0.1-2,0.3c0.1-0.4,0.5-0.4,0.6-0.9
			C61.4,26,61.1,27,62,26.8z M51.7,14.5h7.7c-0.4,1.9-2,2.6-2.6,4.3c-0.9,0-1-0.7-1.7-0.9c0.2-1.2,1.3-1.5,1.1-3.1
			c-1.4-0.1-1.7,1-2.6,1.4c-0.7,0.1-0.9-0.4-1.1-0.9C52.3,15.1,51.5,15.3,51.7,14.5z M58,27.1c-0.5,0.7-2.2,0.1-3.1,0.3
			c0.7-1.2,1.5-2.3,2-3.7c0.4,0.1,0.7,0.4,1.1,0.6C57.4,24.9,57.2,26.4,58,27.1z M53.4,24.2c-0.8,0-1.1-0.7-1.4-1.1
			c0.2-1.1,1.1-1.5,1.4-2.6c0.7,0.2,0.8,0.9,1.4,1.1C54.4,22.5,54,23.5,53.4,24.2z M52,27.4c-0.8,0.2-2.3-0.4-2.6,0.3
			c-0.9-0.6,0.7-1.2,0.6-2C50.7,26.2,52,26.2,52,27.4z M49.5,17.1c0.9,0.2,1.2,1,2,1.4c-0.2,1.3-1.5,1.6-1.7,2.9
			c-0.9-0.1-1.3-0.8-2-1.1C47.9,18.8,49.2,18.5,49.5,17.1z M42.6,14.5v0.3c2.3-0.7,3.2,1.1,5.4,0.3c0,1-1,0.9-1.1,1.7
			c-0.7,0.2-0.6,1.3-1.4,1.4c-1.4-0.4-2.2-1.4-3.1-2.3c-0.1-0.5,0.3-0.6,0.3-1.1c-0.7-0.1-0.6,0.5-1.4,0.3
			C40.9,14.2,42.1,14.7,42.6,14.5z M47.5,23.7c-0.4,1.9-2.2,2.4-2.3,4.6c-0.8-0.2-1.6-0.5-2-1.1c0.4-1.7,1.7-2.6,2.3-4.3
			C46.6,22.6,46.6,23.5,47.5,23.7z M40.6,18.5c0.1,0.1-0.2,0.4-0.3,0.3C40.2,18.7,40.5,18.5,40.6,18.5z M41.2,19.1
			c0.6,0.6,1.6,0.9,2,1.7c-0.8,1.8-2.2,2.9-2.8,4.8c-1.2-0.4-2.1-1.1-3.1-1.7C37.9,21.7,40.3,21.2,41.2,19.1z M38.3,30.8
			c-1,0.2-1.4,0.9-2.3,1.1c-1.1-0.2-1.5-1.1-2.6-1.4c0.4-1.6,1.4-2.6,2-4c1.7,0,2.1,1.3,3.4,1.7C38.6,29,38.2,29.6,38.3,30.8z
			 M32.1,26.8c-0.5,0.5-0.9,2.1-1.7,1.4c0.5-1.7,1.5-2.9,2.3-4.3c0.4,0.1,0.4,0.5,0.9,0.6C33.3,25.5,32.4,25.9,32.1,26.8z
			 M34.4,21.7c0.1,0.1-0.2,0.4-0.3,0.3C33.9,21.8,34.3,21.6,34.4,21.7z M40.1,13.4c-0.8,0.8-1.6-0.7-2.3-0.9
			C38.5,11.8,39.3,13.3,40.1,13.4z M37.8,16c-0.8,1.7-2.4,2.7-3.1,4.6c-0.6-0.1-0.6-0.8-1.1-0.9c0.6-2,1.8-3.5,2.8-5.1
			C37.1,14.7,37,15.8,37.8,16z M31.5,13.1V8.8c1.4,0.7,3,1.2,4.3,2c-0.6,0.3-0.8,0.9-1.1,1.4c0.2,1-1,0.7-0.9,1.7
			c-0.9,0.8-1.5,1.9-2,3.1C31.1,16.3,31.7,14.4,31.5,13.1z M30.7,19.7c0.1-0.4,0.3,0,0.3,0.3C30.4,20,30.4,19.7,30.7,19.7z
			 M30.1,21.7c1.3,0.5-0.7,1.2-0.6,2.3c-0.8,0.4-0.6,1.8-1.7,2C28,23.9,29.3,23.1,30.1,21.7z M26.7,36.5c0.7-2,1.5-4,2.3-6h0.9
			c-0.5,1.7-1.7,3.8-0.9,6c-0.7,0.7-1.5,1.4-1.7,2.6C26.5,38.7,26.7,37.5,26.7,36.5z M32.9,34.2c-0.8,0.1-0.6,1.1-1.1,1.4
			c-0.1,0.7,0.5,0.6,0.3,1.4c-2.4,2.7-3.2,9.9-1.1,13.7c0.3,0,0.2,0.4,0,0c-1.7-1.4-2.4-3.9-3.1-6.3c0.4-2.7,1.8-4.5,2.3-7.1
			c0.7-0.2,0.8-0.9,1.4-1.1c-0.2-1.1,0.5-1.2,0.3-2.3c0.3-0.2,0.4-2,1.1-0.9C34.2,33,33,33.9,32.9,34.2z M47.5,55.8
			c-2.9-0.4-5.7-0.7-8.5-1.1c-1.1-0.9-2.1-1.9-2.8-3.1c-0.4-0.6-0.8-1.3-1.1-2c-0.5-0.5-0.4-1.5-0.9-2c0-2.8,0.3-5.2,0.6-7.7
			c0.4-1.7,1.8-2.4,2.6-3.7c1.2-0.9,2.1-2.1,3.4-2.8c0.7-0.2,1.5-0.3,2-0.6c0.5-0.3,1.7,0,2-0.6c6.9,0.4,11.9-1.2,18.8-0.9
			c1.5,0.2,1.9-0.6,3.1-0.6h6.3c0.5,0.1,0.5-0.3,0.9-0.3c0.9-0.2,0.8,0.5,1.7,0.3c0.7,0,1.1,0.4,1.1,1.1c0.4,0.3,1,0.3,1.4,0.6
			c0.9,2.6,1.9,4.9,2.6,7.7v4.6c-0.9,3.1-2.2,5.8-3.7,8.3c-1,0.8-2.6,1-3.7,1.7c-0.6,0.2-1.1,0.6-2,0.6c-0.1,0.8-1.4,0.3-1.7,0.9
			C61.7,56.8,55.1,55.9,47.5,55.8z M70.8,47c2.3,0.2,2.6-1.6,3.4-2.8c0-3.6,0.6-7.8-2.8-8h-0.6c-1.2,1.2-2.5,2.2-3.1,4
			c0,1.6,0,3.1,0.3,4.3C69,45.2,69.1,47,70.8,47z M41.8,47.9c1.2,0.8,2.9,1,4.3,0.3c2.1-2.1,1.1-7.7-0.3-9.7
			C41,37,40,44.4,41.8,47.9z M58,48.2c0-0.3,0.4-0.3,0.9-0.3c0.6-0.7,0.8-1.9,0.3-2.8c-1.1-1-3.1-0.5-3.1,1.1
			C56.2,47.3,56.8,48,58,48.2z M59.1,51.3c-0.9,0-1.4,0.5-2.6,0.3c-1.9-0.1-2-2-4-2c-0.2,0.4-0.4,0.7-0.9,0.8c0.4,3,3.1,3.8,6.3,4
			c0.7-0.1,1.1-0.5,2-0.3c1.4-0.9,4.6-2.3,2.8-4.6C60.9,49.4,60.4,50.8,59.1,51.3z"/>
	</g>
</g>
</svg>
