<?xml version="1.0" encoding="utf-8"?>
<!-- Generator: Adobe Illustrator 19.2.1, SVG Export Plug-In . SVG Version: 6.00 Build 0)  -->
<svg version="1.1" id="Capa_1" xmlns="http://www.w3.org/2000/svg" xmlns:xlink="http://www.w3.org/1999/xlink" x="0px" y="0px"
	 viewBox="0 0 483.9 483.9" style="enable-background:new 0 0 483.9 483.9;" xml:space="preserve">
<style type="text/css">
	.st0{fill:none;stroke:#FFFFFF;stroke-width:3;stroke-linecap:round;stroke-linejoin:round;}
</style>
<g>
	<g>
		<g>
			<path class="st0" d="M8.6,384.3c0,0,74.1-71.5,86.5-49.9c0,0-87.1,57.2-86.5,58.3c0,0,80.6-60.1,86.5-49.9
				c1.7,3-86.5,60.6-86.5,60.6l86.5-49.9C101.2,363.8,6.3,407,8.6,411c4.9,8.5,81.2-59.1,86.5-49.9c9.3,16.2-85.1,57.4-85.1,57.4
				c0.7,1.1,81.7-55.1,85.1-49.1c3.1,5.4-85.4,47.8-84.6,49.1c4,6.9,72.1-70.5,84.6-48.8c5.7,9.8-76.8,43.8-73.8,48.8
				c2.5,4.3,71.1-47.3,73.8-42.6c8.2,14.2-63.2,29.4-55.6,42.6c7.6,13.1,72.4-42.2,72.6-41.9l-67.9,41.9c0,0,62-60.2,72.6-41.9
				c1.6,2.7-74.3,28.4-66.6,41.9l72.6-41.9c0.1,0.1-65.1,28-57.1,41.9c0,0,53.1-55.6,63.9-36.9c6.4,11.1-62,36.9-62,36.9
				c0.4,0.6,56.5-45.4,62-35.8c5.9,10.2-46.1,29-42.2,35.8c1.2,2,39.1-29.8,42.2-24.4c2.6,4.5-31.7,21.4-30,24.4
				c0,0,26.1-24.2,30-17.3c1.7,3-16.3,17.3-16.3,17.3c0.3,0.6,14.6-12.4,16.3-9.4"/>
			<path class="st0" d="M319.6,377.6c1.7,2.9,1.9-1.1,1.9-1.1c0.4,0.8-2,4.7-1.9,5c0.4,0.8,7.9-6.4,8.7-5c0.2,0.4-8.9,6.5-8.7,6.9
				c3.6,6.2,10.1-9.9,11.9-6.9c0.1,0.2-13.6,9.7-11.9,12.6c0,0,92.9-78.6,103.8-59.9c2.3,3.9-109.9,56.2-103.8,66.8
				c9.3,16.1,95.1-75,103.8-59.9c0,0-107.7,64-103.7,70.9c9.2,15.9,95.3-74.5,103.7-59.9c0,0-107.3,58.1-103.7,64.2
				c10.1,17.5,103.7-59.9,103.7-59.9c5.1,8.8-97.8,64.9-96.6,66.9c0,0,80.7-83.5,96.6-55.8c13.5,23.4-99.3,50.9-96.4,55.8
				c9.4,16.3,90.6-65.8,96.4-55.7c3.6,6.2-77.1,55.7-77.1,55.7c9.1,15.8,73.5-62.9,82.4-47.6c0,0-83.2,45.8-82.2,47.6
				c9.8,16.9,82.3-47.5,82.3-47.5c8.2,14.3-75.4,41.5-71.9,47.5c5.4,9.4,68.3-61.2,77.8-44.9c10,17.2-71,44.9-71,44.9
				s67-57.9,75.4-43.5c8.7,15.1-78.8,37.3-75.2,43.5c6,10.3,75.3-43.5,75.3-43.5c2.6,4.5-70.9,43.5-70.9,43.5
				c9,15.5,62.4-62.9,74-42.7c0,0-56.2,40.6-55,42.7c11.6,20.1,68.1-49.7,72.6-41.9c1.8,3-63.5,41.8-63.4,41.9
				c11,19,72.6-41.9,72.6-41.9c6.5,11.3-63.3,41.9-63.3,41.9s58.8-58.8,69.6-40.2c0,0-62.9,28.8-56.4,40.2
				c5.3,9.3,48.6-46,56.4-32.6c4.6,7.9-49.5,32.6-49.5,32.6l49.5-28.6c2.8,4.8-48.9,18.1-42.9,28.6c1.6,2.8,37.7-33.7,42.9-24.8
				c2.3,4-25.5,23.7-24.9,24.8c5.6,9.7,21.3-20.7,24.9-14.4c2.2,3.8-23.1,13.6-22.7,14.4c1.3,2.3,18.5-20.4,22.7-13.1
				c0.9,1.6-17.3,13.1-17.3,13.1c2.6,4.5,14.8-14.4,17.3-10c0.7,1.3-1,9.9-1,10c0.6,1.1,0.3-1.7,1-0.6"/>
			<path class="st0" d="M455.7,109.7c1.3,2.2,17.6-14.6,19.5-11.3c2.1,3.6-18.5,9.3-17.7,10.7c4.2,7.2,14.9-15.2,17.7-10.2"/>
			<path class="st0" d="M349.7,124.6c7.2,12.4,92.8-76,102.5-59.2c0,0-105,53.9-98,66.1l114.4-66.1c6.1,10.5-121.6,64.3-114.4,76.7
				c9.1,15.8,106.1-95.8,121-69.9c13.8,24-132.8,60.8-121,81.3c0.1,0.1,121.1-69.9,121.1-69.9c11.7,20.2-123,68.3-121.1,71.8
				c2.8,4.9,121.1-69.9,121.1-69.9c17.2,29.8-130.2,62-121.1,77.8c13.2,22.9,121.1-69.9,121.1-69.9c0.7,1.1-136.9,45.9-121.1,73.3
				c11,19,121.1-69.9,121.1-69.9l-121.1,71.5l71.4-41.2c0.2,0.3-75.7,40.9-71.4,48.3c0.4,0.7,57-61.1,69.2-39.9
				c2.9,5-69.2,40.2-69.2,40.2s62.4-51.8,69.2-39.9c9.2,15.9-69.2,46.8-69.2,46.8s64-49,69.2-39.9c0.8,1.4-70.8,46.3-69.2,49.1
				c11.3,19.6,68-42,69.2-39.9c3.8,6.6-72.2,38.3-69.2,43.6c6.7,11.7,68.9-40.4,69.2-39.9c0,0-74.5,35.4-69.2,44.6
				c1.3,2.3,63.7-49.4,69.2-39.9c2.4,4.1-73.3,41.3-69.2,48.3c0,0,69.1-40.1,69.2-39.9c2.8,4.9-69.2,41.6-69.2,41.6
				s68.6-41.1,69.2-39.9c0,0-73.4,33.4-69.2,40.6c3.8,6.7,68.7-40.7,69.2-39.9c3.5,6.1-71.2,46-69.2,49.4c0,0,59-57.7,69.2-39.9
				c8.5,14.7-69.2,45.8-69.2,45.8c5.5,9.6,68.3-41.5,69.2-39.9l-69.2,50.4c7.9,13.7,62.4-51.7,69.2-39.9c2,3.4-77.6,28.9-69.2,43.4
				c11.8,20.5,62-52.5,69.2-39.9c3.9,6.8-75.9,30.9-69.2,42.4c4.4,7.7,59.7-56.3,69.2-39.9c0,0-70.4,47.9-69.2,50.1
				c4.3,7.4,57.1-60.9,69.2-39.9c7.1,12.4-75,32.9-69.2,42.9c10.8,18.8,61.8-52.8,69.2-39.9c0.7,1.2-69.2,48.7-69.2,48.7l69.2-39.9
				c7.5,13-72.7,36.4-69.2,42.5c0,0,58.3-58.8,69.2-39.9c9.5,16.4-75.1,40.2-69.2,50.5c6.2,10.7,69.2-39.9,69.2-39.9l-69.2,48.7
				c11.7,20.3,69.2-39.9,69.2-39.9s-72.2,40.4-69.2,45.7c4,7,67.5-42.9,69.2-39.9c6.5,11.3-69.2,40.7-69.2,40.7
				c4.5,7.9,59.6-56.5,69.2-39.9c5.4,9.3-77,26.5-69.2,40c5,8.7,69.2-39.9,69.2-39.9c0.4,0.7-78.9,34.1-69.2,50.8
				c8.3,14.4,57.4-60.4,69.2-39.9c7.9,13.7-69.2,50.1-69.2,50.1c0.7,1.2,69.2-39.9,69.2-39.9c8,13.8-78,36.1-69.2,51.4
				c4.6,8,69.2-39.9,69.2-39.9c6.5,11.3-77.2,29.8-69.2,43.6l69.2-39.9c2.3,4-74.1,39.7-69.2,48.1c9.7,16.8,59.6-56.5,69.2-39.9
				c7.9,13.7-69.8,39.5-69.2,40.7c7.1,12.3,63.6-49.6,69.2-39.9c7.2,12.4-76.3,30-69.2,42.4c0.9,1.6,65.5-46.3,69.2-39.9
				c0,0-71.6,36.4-69.2,40.7c6.6,11.5,69.2-39.9,69.2-39.9c2.9,5-69.2,42.7-69.2,42.7c3.8,6.5,58.9-57.7,69.2-39.9
				c6.6,11.5-70.7,41.7-69.2,44.4c0.1,0.2,67.9-42.2,69.2-39.9c6.5,11.3-74.3,38.5-69.2,47.4c0,0,60.2-55.5,69.2-39.9
				c7.8,13.5-69.2,46.5-69.2,46.5s68.4-41.3,69.2-39.9c7.6,13.2-70.5,41.5-69.2,43.7c4.4,7.6,69.2-39.9,69.2-39.9"/>
			<path class="st0" d="M303.8,66.5c1.8,3,1-2.5,1.8-1c0.4,0.6-3.3,6.4-3.3,6.4c2.8,4.9,8.5-11,11.2-6.4c0.9,1.6-14,13.5-13.4,14.5
				c0,0,20.3-22.8,25.1-14.5c2,3.5-30.2,19.3-27.7,23.7c1.8,3.2,40.8-24.2,41.1-23.7c1.4,2.4-51.5,24.4-44.7,36.2
				c6.5,11.2,55.4-49,62.8-36.2c9.4,16.3-64.9,43.7-64.9,43.7s72.6-49.2,75.7-43.7c5.1,8.9-76.7,46.7-76.6,46.9
				c2.8,4.9,73-61.1,81.2-46.9c12.5,21.7-94.3,44.7-85.1,60.6c8.1,14,102.5-65,105-60.6c3,5.2-122.9,42.1-107.4,69
				c4.9,8.5,119.4-69,119.4-69c12.9,22.4-135.1,53-121.6,76.5c19.1,33.2,122.2-94.3,132.4-76.5c2.1,3.6-144.2,67.4-134.6,84
				c0,0,136.5-99.6,145.5-84c16,27.7-162.4,73-149,96.3c13.3,23,153.9-118.6,166.8-96.3c12.4,21.5-183.4,84.3-170,107.5
				c5.5,9.6,55.8-32.2,55.8-32.2c5.9,10.2-57.8,39.4-57.8,39.4c4.1,7.1,50.1-42.1,55.8-32.2c0,0-59.9,32.8-57.3,37.3
				c1.2,2,52.7-37.6,55.8-32.2c5.8,10.1-64.8,21.1-56.7,35.2c9,15.5,46.7-48,55.8-32.2c5.5,9.5-62.8,35.7-58.8,42.6
				c1.2,2.1,55.8-32.2,55.8-32.2c5.2,9-64.8,24.1-57.2,37.2c0,0,46.8-47.9,55.9-32.2c2,3.5-65.2,31-58.7,42.3
				c9.7,16.8,55.9-32.3,55.9-32.3s-60.5,29.2-56.8,35.6c4.6,8,55.9-32.3,55.9-32.3c3.3,5.6-65.2,31-58.7,42.2
				c6.3,10.9,51.5-39.9,55.9-32.3c6.3,10.9-64.7,37.4-59.8,45.9c1.6,2.8,52.2-38.8,55.9-32.3c1.2,2.1-62.5,24.8-56.7,34.9
				c0,0,50.5-41.7,55.9-32.3c1.8,3.2-62.2,35.8-58.7,42c4,6.9,54.3-35.2,56-32.3c4.9,8.5-57.5,37.7-57.5,37.7s52.8-37.8,56-32.3
				c0.4,0.6-56.7,34.9-56.7,34.9c7.3,12.6,50.5-41.7,56-32.3c0,0-61.6,24-56.2,33.2c1.6,2.8,47.7-46.7,56-32.3
				c1.3,2.3-57.9,29.5-56.1,32.6c1.6,2.8,55.9-32.4,56-32.3"/>
			<path class="st0" d="M113.7,124.7c8.8,15.3,52.1-55.7,63.2-36.5c7.4,12.8-65,26-58,38.1c7.3,12.7,48.6-52.3,59.1-34.1
				c0.8,1.4-65.5,27.1-57,41.9c9.2,16,59.1-34.1,59.1-34.1c1.4,2.4-61,33.9-57.5,40c3.7,6.3,48.7-52.3,59.2-34.2
				c4.2,7.3-59.8,37-57,41.9c0,0,54.6-42,59.2-34.2c6.7,11.7-62.7,31.4-57.3,40.7c6.8,11.8,51-48.3,59.2-34.2
				c7,12.1-57.3,42.4-56.5,43.9c0,0,48.9-52.1,59.2-34.2c2.4,4.1-63.1,30.9-57.3,40.9c0,0,50.6-49.2,59.2-34.2
				c6,10.3-63.2,28.2-58.7,36c2.8,4.9,52.2-46.3,59.2-34.2c5.8,10.1-64.4,25.5-59.1,34.7c0,0,49.4-51.3,59.2-34.2
				c0,0-62.6,31.9-57.3,41l59.2-34.2c6.7,11.6-63.9,30.7-56.8,42.9c0,0,58.1-36.2,59.3-34.2c0.6,1.1-64,28.7-57.8,39.4
				c4.7,8.2,48.6-52.6,59.3-34.2c3.9,6.7-63.8,26.6-59.2,34.6c9.4,16.3,49.2-51.7,59.3-34.2c4.8,8.4-60.7,35.5-57.2,41.6
				c0,0,49.2-51.8,59.3-34.2c1,1.7-61.3,31.9-58.7,36.5c9.3,16,58.1-36.3,59.3-34.2c1.6,2.8-59.2,35.4-58.8,36.1
				c2,3.5,59.3-34.2,59.3-34.2s-59.3,34.9-58.9,35.7c0,0,55-41.8,59.3-34.2c7,12.2-57.4,42.5-56.6,44c0.4,0.6,55.2-41.5,59.3-34.3
				c0.7,1.3-62.9,32.8-56.8,43.2c1.2,2,55.6-40.7,59.3-34.3c0,0-57.6,41.3-57.1,42.2c0.3,0.5,57.8-37,59.4-34.3
				c7.6,13.2-62.8,30.4-58.2,38.4c5.3,9.3,53-45.3,59.4-34.3c6.9,12-60.9,32-59.2,34.9c4.1,7.1,53.1-45.1,59.4-34.3
				c4.3,7.4-62.8,32.6-57.1,42.5c1.8,3.1,59.4-34.3,59.4-34.3s-65.2,27.9-57.4,41.4c6.3,10.9,59.4-34.3,59.4-34.3
				c8.5,14.7-63.2,31.9-57.1,42.5c6.7,11.6,54.4-42.9,59.4-34.3c2.5,4.3-65.5,25.9-58.3,38.5c5.9,10.2,49.7-51.2,59.4-34.3
				c8.4,14.6-61.2,36.4-56.7,44.2c7,12.1,53.1-45.4,59.5-34.3c5.9,10.2-59.3,35.2-59.2,35.4c10.2,17.7,53.7-44.3,59.5-34.3
				c0,0-58.2,40.1-57.5,41.2c8.7,15,53.3-45.1,59.5-34.3c3.2,5.5-62.6,33.8-56.8,43.8c1.2,2.1,59.5-34.4,59.5-34.4
				c2.9,5.1-63.3,30.9-57.8,40.4c7.6,13.2,55.4-41.4,59.5-34.4c0.3,0.4-59.2,35.7-59.2,35.7s58-37,59.5-34.4
				c0.3,0.6-60.5,37.3-57,43.4c14.5,25.2,115.3-107.4,133-76.8c9.6,16.6-130.4,86-130.4,86l126.8-73.2
				c1.1,1.9-126.2,75.2-126.2,75.2c16.1,27.8,119.6-82.6,125.4-72.4c0,0-130.3,64.2-125.3,72.9c12.4,21.4,115.9-88.2,125.1-72.2
				c14.5,25.2-122.4,81.8-122.4,81.8c13.1,22.6,109.6-84.4,118.7-68.5c2.4,4.2-116.6,76.2-116.6,76.2
				c14.8,25.7,99.6-89.7,113.6-65.6c12.2,21.1-124.9,50.6-111,74.8c9.3,16.1,101.1-72.7,107.3-62c3,5.3-116.7,46.1-107.1,62.6
				c2.3,4.1,99.7-74.1,106.9-61.7c15.1,26.2-105.3,67.3-105.3,67.3c12.3,21.2,98.4-67.7,103.1-59.5c10.4,18.1-101.3,67.7-100.4,69.2
				c2.8,4.9,96.6-55.8,96.6-55.8c13.4,23.3-106.2,40-96.1,57.5c0,0,92.5-60.1,95.4-55.1c12.4,21.4-100.4,50.5-93.3,62.9
				c8.3,14.3,89.5-53.2,90.2-52.1l-87.6,61.1c9.2,15.9,83-50.3,84.1-48.5c1.1,1.9-85.4,46.8-83.9,49.4c7.6,13.2,75.8-61.7,83.5-48.2
				c2.3,4-93.3,33.9-82.1,53.3c0,0,77.8-50.3,80.1-46.3c0.3,0.6-78,54.1-78,54.1c8,13.8,74.9-43.2,74.9-43.2s-81.1,34.2-73.9,46.8
				c0,0,66.4-52.4,72.5-41.8c7.5,13-70.2,50-70.2,50c8.1,14.1,65.9-40.6,67-38.7c5.5,9.5-70.6,34.6-65.7,43.1
				c9,15.5,60.7-42.7,64-37c0,0-65.3,37-62.7,41.5c0,0,58.7-39.1,61-35.2c0.6,1-53.1,36.9-53.1,36.9c9.3,16.1,44.7-40.4,51-29.4
				c1.1,1.9-48.3,22.9-44.5,29.4l43.3-25c0,0-29,22-27.3,25c3.1,5.4,19.9-21.4,24.2-14c0.3,0.5-14.7,13-14.1,14
				c0.7,1.3,8.3-13.6,12.2-7"/>
			<path class="st0" d="M8.6,67.5c0,0,1.6-5.2,3.5-2c0,0-4.5,7.3-3.5,9.1c0,0,14.7-11,15.7-9.1C26.5,69.2,8,79.9,8.6,80.9
				c2.4,4.2,26.7-15.4,26.7-15.4C39.1,71.9,6,81.4,8.6,85.9C13.7,94.7,44,65.5,44,65.5S5.9,83.9,8.6,88.6c0,0,33.8-33.9,40-23.1
				c0,0-41.1,26.9-40,28.8c5,8.7,47.1-33.7,49.9-28.8c6.4,11-54.4,22.4-49.9,30.1c4.1,7.1,42.7-46.4,52.2-30.1
				C67.1,76.4,8.6,107,8.6,107c11.3,19.5,66.3-51.2,71.9-41.5c2,3.4-59.5,41.9-59.5,41.9c9.3,16.1,64.2-56.4,72.6-41.9
				c4.8,8.4-67,31.5-60.3,43.1c0,0,63-63.4,74.7-43.1c7.6,13.2-79.2,31.7-71.5,45c7.4,12.8,78-45,78-45c0.6,1-76.5,44.8-74.3,48.5
				c2.3,4,81.4-53.1,84.1-48.5c7.4,12.9-81,56.5-81,56.5C55,142.4,130,46.2,141.1,65.5c10.6,18.3-108.8,42.8-97.9,61.8
				c0.5,0.9,94.6-83.3,107-61.8c0,0-119,48.1-107,68.8c7.4,12.8,105.9-91.9,119.2-68.8c0,0-128.1,57.7-119.2,73
				c2.2,3.8,111.1-99.6,126.5-73c4.6,7.9-129.9,74.5-126.5,80.4c3.2,5.5,128.9-74.7,129-74.5c1.1,1.9-139.1,63.5-129,81
				c16.3,28.3,112.2-107.3,130.6-75.4c1.6,2.8-147.1,53.2-130.6,81.7c20.8,35.9,132.1-76.3,132.1-76.3L43.2,166.9l51.9-30
				c2.2,3.9-55.6,24.8-51.9,31.1c6.5,11.3,51.9-30,51.9-30l-51.9,39l51.9-30c6.5,11.3-57,23.6-51.9,32.5c4.4,7.7,51.9-30,51.9-30
				c3.9,6.7-56.3,26.6-51.9,34.2c4.4,7.6,51.9-30,51.9-30c5.8,10.1-58.6,23.7-51.9,35.4c6.1,10.5,51.9-30,51.9-30
				c2.4,4.2-57.7,21.3-51.9,31.4c8.1,14.1,46.9-38.7,51.9-30c6,10.3-51.9,31.9-51.9,31.9s49.4-34.4,51.9-30
				c6.4,11.1-57.6,26.4-51.9,36.1c0.9,1.5,51.9-30,51.9-30c4.4,7.7-55.6,32.1-51.9,38.5c8.8,15.3,49.3-34.4,51.9-30
				c1.5,2.6-56.9,28.6-51.9,37.3c0,0,42.9-45.5,51.9-30c7.7,13.4-57.6,29.1-51.9,39c2.9,5.1,45.2-41.6,51.9-30
				c6,10.4-58.5,18.8-51.9,30.1c3,5.2,43.9-43.9,51.9-30c5.3,9.2-57.4,23.5-51.9,33c0,0,51.6-30.5,51.9-30c0,0-52.1,32.5-51.9,32.8
				c6,10.4,42.8-45.8,51.9-30c0,0-52.2,33.2-51.9,33.7c0,0,47.9-36.9,51.9-30c1.6,2.7-51.9,33.1-51.9,33.1
				c8.3,14.3,50.4-32.6,51.9-30c3,5.1-51.9,36.1-51.9,36.1c2.4,4.1,51.9-30,51.9-30c5.3,9.2-51.9,38.8-51.9,38.8
				c3.3,5.7,44.9-42.2,51.9-30c4.5,7.7-57.6,25.7-51.9,35.6c5.9,10.2,49.4-34.3,51.9-30c0,0-56.2,27.5-51.9,34.9
				c5.2,9,48.1-36.5,51.9-30c7.5,13-57.3,28.4-51.9,37.7c6.5,11.3,46.1-40,51.9-30c0,0-53.7,35.3-51.9,38.4
				c4.5,7.7,48.1-36.6,51.9-30c2.1,3.6-54.8,32.2-51.9,37.2c0,0,42.3-46.6,51.9-30c6.3,10.9-56.3,27.1-51.9,34.7
				c1.7,2.9,46.8-38.9,51.9-30c1.3,2.3-58.1,25.6-51.9,36.3c0.6,1.1,51.3-31.1,51.9-30c7.1,12.3-53.2,31.1-51.9,33.4
				c3,5.2,51.1-31.4,51.9-30c0,0-54.4,32.3-51.9,36.6c2.3,4,45.1-41.8,51.9-30c7.5,13-54.6,28.8-51.9,33.4c3.3,5.6,47-38.5,51.9-30
				c2,3.5-57.9,21.9-51.9,32.2c0.1,0.2,44.4-43,51.9-30c0,0-55.6,32-51.9,38.4c7.1,12.3,46.6-39.2,51.9-30
				c6,10.3-57.3,23.5-51.9,32.9c3.8,6.6,48.6-35.7,51.9-30c4.2,7.3-56.7,24.3-51.9,32.6c3.1,5.5,49.2-34.7,51.9-30
				c0,0-58.5,23.6-51.9,35c2.5,4.4,44.2-43.3,51.9-30c0,0-59.8,25.5-51.9,39.1c5.1,8.9,51.9-30,51.9-30c5.2,8.9-57,31.1-51.9,39.9
				c8,13.9,46.9-38.6,51.9-30c5.5,9.5-60.9,25.3-53.1,38.8c0,0,50.3-35.5,53.1-30.6c4.2,7.3-56.2,29.9-54.6,32.7
				c6.8,11.8,47.6-43.5,54.6-31.5"/>
		</g>
	</g>
</g>
</svg>
